<svg width="252" height="45" viewBox="0 0 252 45" fill="none" xmlns="http://www.w3.org/2000/svg">
<path d="M67.2179 8.719C68.8852 8.719 70.3612 8.883 71.6459 9.211C72.9306 9.539 74.0786 9.96266 75.0899 10.482L73.8189 14.664C72.6982 14.1173 71.6186 13.7073 70.5799 13.434C69.5412 13.1333 68.5299 12.983 67.5459 12.983C66.2339 12.983 65.2089 13.2427 64.4709 13.762C63.7602 14.2813 63.4049 14.9783 63.4049 15.853C63.4049 16.755 63.7192 17.4383 64.3479 17.903C64.9766 18.3677 65.9879 18.8187 67.3819 19.256L69.8419 20.035C71.8919 20.7183 73.4909 21.6887 74.6389 22.946C75.8142 24.2033 76.4019 25.7477 76.4019 27.579C76.4019 28.6723 76.1969 29.6973 75.7869 30.654C75.3769 31.6107 74.7619 32.4443 73.9419 33.155C73.1219 33.8657 72.0969 34.426 70.8669 34.836C69.6369 35.246 68.2019 35.451 66.5619 35.451C63.4732 35.451 60.6442 34.8223 58.0749 33.565L59.3459 29.383C60.5212 29.957 61.6692 30.408 62.7899 30.736C63.9106 31.0367 65.0859 31.187 66.3159 31.187C67.7646 31.187 68.8579 30.9273 69.5959 30.408C70.3339 29.8613 70.7029 29.1097 70.7029 28.153C70.7029 27.825 70.6346 27.5107 70.4979 27.21C70.3886 26.882 70.1699 26.5813 69.8419 26.308C69.5139 26.0073 69.0629 25.7203 68.4889 25.447C67.9422 25.1463 67.2179 24.8593 66.3159 24.586L64.1429 23.848C63.1862 23.52 62.3116 23.1373 61.5189 22.7C60.7262 22.2627 60.0429 21.757 59.4689 21.183C58.9222 20.609 58.4849 19.9393 58.1569 19.174C57.8562 18.3813 57.7059 17.4657 57.7059 16.427C57.7059 15.3063 57.9109 14.2813 58.3209 13.352C58.7309 12.3953 59.3322 11.5753 60.1249 10.892C60.9449 10.2087 61.9426 9.67567 63.1179 9.293C64.3206 8.91033 65.6872 8.719 67.2179 8.719ZM97.8913 26.636H84.8943V26.8C84.8943 28.358 85.441 29.5197 86.5343 30.285C87.6277 31.0503 89.0353 31.433 90.7573 31.433C91.8507 31.433 92.8073 31.3237 93.6273 31.105C94.4747 30.8863 95.24 30.6267 95.9233 30.326L96.9073 34.139C96.1693 34.4943 95.24 34.795 94.1193 35.041C92.9987 35.3143 91.673 35.451 90.1423 35.451C88.6663 35.451 87.2723 35.2597 85.9603 34.877C84.6757 34.467 83.5413 33.852 82.5573 33.032C81.6007 32.212 80.8353 31.1733 80.2613 29.916C79.6873 28.6587 79.4003 27.1553 79.4003 25.406C79.4003 23.848 79.6327 22.4403 80.0973 21.183C80.562 19.8983 81.218 18.805 82.0653 17.903C82.94 17.001 83.9787 16.304 85.1813 15.812C86.384 15.2927 87.7233 15.033 89.1993 15.033C91.8507 15.033 93.9553 15.8393 95.5133 17.452C97.0987 19.0647 97.8913 21.3197 97.8913 24.217V26.636ZM92.3153 22.905C92.3153 22.3857 92.247 21.88 92.1103 21.388C92.001 20.896 91.8097 20.4723 91.5363 20.117C91.263 19.7343 90.9213 19.4337 90.5113 19.215C90.1013 18.9963 89.5957 18.887 88.9943 18.887C87.901 18.887 86.999 19.256 86.2883 19.994C85.5777 20.732 85.154 21.7297 85.0173 22.987L92.3153 22.905ZM107.18 35H101.727V15.443H105.991L106.647 17.944C107.549 17.0147 108.533 16.304 109.599 15.812C110.692 15.2927 111.895 15.033 113.207 15.033C115.366 15.033 117.02 15.6207 118.168 16.796C119.316 17.9713 119.89 19.6797 119.89 21.921V35H114.437V22.495C114.437 21.4837 114.191 20.691 113.699 20.117C113.207 19.5157 112.483 19.215 111.526 19.215C110.815 19.215 110.064 19.42 109.271 19.83C108.506 20.2127 107.809 20.7457 107.18 21.429V35ZM144.263 25.283C144.263 26.841 144.03 28.2487 143.566 29.506C143.101 30.7633 142.459 31.843 141.639 32.745C140.819 33.6197 139.848 34.2893 138.728 34.754C137.607 35.2187 136.391 35.451 135.079 35.451C133.794 35.451 132.701 35.2597 131.799 34.877C130.897 34.467 130.104 33.9067 129.421 33.196H129.257L128.888 35H124.952V5.726H130.364V17.042C131.047 16.4133 131.84 15.9213 132.742 15.566C133.671 15.2107 134.655 15.033 135.694 15.033C138.372 15.033 140.463 15.935 141.967 17.739C143.497 19.543 144.263 22.0577 144.263 25.283ZM138.646 25.406C138.646 23.3833 138.249 21.8527 137.457 20.814C136.664 19.748 135.543 19.215 134.095 19.215C133.329 19.215 132.619 19.4063 131.963 19.789C131.307 20.1443 130.787 20.5543 130.405 21.019V29.998C130.76 30.408 131.211 30.7497 131.758 31.023C132.332 31.2963 132.933 31.433 133.562 31.433C134.218 31.433 134.846 31.31 135.448 31.064C136.076 30.818 136.623 30.449 137.088 29.957C137.58 29.465 137.962 28.85 138.236 28.112C138.509 27.3467 138.646 26.4447 138.646 25.406ZM160.8 15.443H166.253V35H162.194L161.62 32.786H161.456C161.156 33.0867 160.8 33.401 160.39 33.729C160.008 34.0297 159.543 34.3167 158.996 34.59C158.477 34.836 157.876 35.041 157.192 35.205C156.536 35.369 155.798 35.451 154.978 35.451C152.874 35.451 151.206 34.8633 149.976 33.688C148.774 32.5127 148.172 30.777 148.172 28.481V15.443H153.625V28.03C153.625 29.2053 153.899 30.0527 154.445 30.572C155.019 31.0913 155.744 31.351 156.618 31.351C157.602 31.351 158.436 31.146 159.119 30.736C159.83 30.326 160.39 29.8477 160.8 29.301V15.443ZM171.606 35V15.443H177.059V35H171.606ZM174.353 11.261C173.423 11.261 172.699 11.0013 172.18 10.482C171.66 9.93533 171.401 9.26567 171.401 8.473C171.401 7.68033 171.66 7.02433 172.18 6.505C172.699 5.95833 173.423 5.685 174.353 5.685C175.255 5.685 175.965 5.95833 176.485 6.505C177.031 7.02433 177.305 7.68033 177.305 8.473C177.305 9.26567 177.045 9.93533 176.526 10.482C176.006 11.0013 175.282 11.261 174.353 11.261ZM182.65 35V5.726H188.021V35H182.65ZM205.724 5.726H211.177V35H207.282L206.708 32.868H206.503C206.011 33.5513 205.301 34.1527 204.371 34.672C203.469 35.1913 202.28 35.451 200.804 35.451C199.574 35.451 198.426 35.2187 197.36 34.754C196.294 34.2893 195.365 33.6197 194.572 32.745C193.78 31.8703 193.151 30.8043 192.686 29.547C192.249 28.2897 192.03 26.8547 192.03 25.242C192.03 23.684 192.235 22.2763 192.645 21.019C193.055 19.7617 193.643 18.6957 194.408 17.821C195.174 16.919 196.117 16.2357 197.237 15.771C198.358 15.279 199.643 15.033 201.091 15.033C202.021 15.033 202.895 15.1697 203.715 15.443C204.563 15.7163 205.232 16.0717 205.724 16.509V5.726ZM205.724 20.568C205.369 20.1307 204.904 19.7617 204.33 19.461C203.756 19.1603 203.128 19.01 202.444 19.01C201.788 19.01 201.16 19.1193 200.558 19.338C199.984 19.5567 199.465 19.912 199 20.404C198.563 20.8687 198.208 21.4973 197.934 22.29C197.661 23.0553 197.524 23.9983 197.524 25.119C197.524 26.2123 197.647 27.1553 197.893 27.948C198.139 28.7407 198.467 29.3967 198.877 29.916C199.287 30.4353 199.766 30.818 200.312 31.064C200.886 31.31 201.488 31.433 202.116 31.433C202.991 31.433 203.729 31.228 204.33 30.818C204.959 30.3807 205.424 29.875 205.724 29.301V20.568ZM233.624 26.636H220.627V26.8C220.627 28.358 221.173 29.5197 222.267 30.285C223.36 31.0503 224.768 31.433 226.49 31.433C227.583 31.433 228.54 31.3237 229.36 31.105C230.207 30.8863 230.972 30.6267 231.656 30.326L232.64 34.139C231.902 34.4943 230.972 34.795 229.852 35.041C228.731 35.3143 227.405 35.451 225.875 35.451C224.399 35.451 223.005 35.2597 221.693 34.877C220.408 34.467 219.274 33.852 218.29 33.032C217.333 32.212 216.568 31.1733 215.994 29.916C215.42 28.6587 215.133 27.1553 215.133 25.406C215.133 23.848 215.365 22.4403 215.83 21.183C216.294 19.8983 216.95 18.805 217.798 17.903C218.672 17.001 219.711 16.304 220.914 15.812C222.116 15.2927 223.456 15.033 224.932 15.033C227.583 15.033 229.688 15.8393 231.246 17.452C232.831 19.0647 233.624 21.3197 233.624 24.217V26.636ZM228.048 22.905C228.048 22.3857 227.979 21.88 227.843 21.388C227.733 20.896 227.542 20.4723 227.269 20.117C226.995 19.7343 226.654 19.4337 226.244 19.215C225.834 18.9963 225.328 18.887 224.727 18.887C223.633 18.887 222.731 19.256 222.021 19.994C221.31 20.732 220.886 21.7297 220.75 22.987L228.048 22.905ZM237.46 35V15.443H241.683L242.298 18.969C242.762 17.9303 243.5 17.0147 244.512 16.222C245.523 15.4293 246.794 15.033 248.325 15.033C248.953 15.033 249.514 15.1013 250.006 15.238C250.498 15.3747 250.908 15.5387 251.236 15.73L250.334 20.035C250.033 19.871 249.65 19.7343 249.186 19.625C248.721 19.4883 248.174 19.42 247.546 19.42C246.206 19.42 245.086 19.871 244.184 20.773C243.309 21.6477 242.872 23.0963 242.872 25.119V35H237.46Z" fill="white"/>
<g clip-path="url(#clip0_3_49)">
<mask id="mask0_3_49" style="mask-type:luminance" maskUnits="userSpaceOnUse" x="0" y="0" width="45" height="45">
<path d="M45 0H0V45H45V0Z" fill="white"/>
</mask>
<g mask="url(#mask0_3_49)">
<path d="M22.5 45C34.9264 45 45 34.9264 45 22.5C45 10.0736 34.9264 0 22.5 0C10.0736 0 0 10.0736 0 22.5C0 34.9264 10.0736 45 22.5 45Z" fill="#FF8400"/>
<mask id="mask1_3_49" style="mask-type:alpha" maskUnits="userSpaceOnUse" x="0" y="0" width="45" height="45">
<path d="M22.5 45C34.9265 45 45 34.9265 45 22.5C45 10.0736 34.9265 0 22.5 0C10.0736 0 0 10.0736 0 22.5C0 34.9265 10.0736 45 22.5 45Z" fill="#FF8400"/>
</mask>
<g mask="url(#mask1_3_49)">
<path d="M36.81 31.77C43.83 39.87 34.9265 45 22.5 45C10.0736 45 0 34.9265 0 22.5C9.09 28.53 -1.35641 19.71 11.07 19.71C23.58 16.47 23.22 23.4 36.81 31.77Z" fill="#4F4F4F"/>
<path d="M-6.66003 28.35L12.87 9.0524L42.3 36.27L37.71 42.75L12.87 19.4024L-1.98003 34.2L-6.66003 28.35Z" fill="white"/>
<path d="M27.36 18.63L34.38 11.52L46.44 23.04L44.73 31.77L34.38 21.51L32.4 23.67L27.36 18.63Z" fill="white"/>
</g>
<path d="M12.78 28.08H8.81995V31.86H12.78V28.08Z" fill="white"/>
<path d="M12.78 33.48H8.81995V37.26H12.78V33.48Z" fill="white"/>
<path d="M18.72 33.48H14.76V37.26H18.72V33.48Z" fill="white"/>
<path d="M18.72 28.08H14.76V31.86H18.72V28.08Z" fill="white"/>
</g>
</g>
<defs>
<clipPath id="clip0_3_49">
<rect width="45" height="45" fill="white"/>
</clipPath>
</defs>
</svg>
